<?xml version="1.0" encoding="us-ascii" standalone="no"?><svg xmlns="http://www.w3.org/2000/svg" xmlns:xlink="http://www.w3.org/1999/xlink" contentStyleType="text/css" height="200px" preserveAspectRatio="none" style="width:517px;height:200px;background:#FFFFFF;" version="1.1" viewBox="0 0 517 200" width="517px" zoomAndPan="magnify"><defs/><g><!--class e--><g id="elem_e"><rect codeLine="1" fill="#F1F1F1" height="186.375" id="e" rx="2.5" ry="2.5" style="stroke:#181818;stroke-width:0.5;" width="270" x="240" y="7"/><ellipse cx="348.25" cy="23" fill="#ADD1B2" rx="11" ry="11" style="stroke:#181818;stroke-width:1.0;"/><path d="M347.0469,23.875 L348.5,23.875 L348.5,23.9844 C348.5,24.3906 348.5313,24.5469 348.6094,24.7031 C348.7656,24.9531 349.0469,25.1094 349.3438,25.1094 C349.5938,25.1094 349.8594,24.9688 350.0156,24.75 C350.1406,24.5938 350.1719,24.4375 350.1719,23.9844 L350.1719,22.0625 C350.1719,21.9063 350.1719,21.8594 350.1563,21.7031 C350.0938,21.2344 349.7813,20.9219 349.3281,20.9219 C349.0781,20.9219 348.8125,21.0625 348.6406,21.2813 C348.5313,21.4531 348.5,21.6094 348.5,22.0625 L348.5,22.1875 L347.0469,22.1875 L347.0469,19.7813 L351.0313,19.7813 L351.0313,20.6406 C351.0313,21.0469 351.0625,21.2188 351.1406,21.375 C351.3125,21.625 351.5938,21.7813 351.875,21.7813 C352.1406,21.7813 352.4063,21.6406 352.5781,21.4219 C352.6875,21.25 352.7188,21.1094 352.7188,20.6406 L352.7188,18.0938 L345.0938,18.0938 C344.6563,18.0938 344.5313,18.1094 344.375,18.2031 C344.125,18.3594 343.9688,18.6563 343.9688,18.9375 C343.9688,19.2188 344.1094,19.4688 344.3281,19.6406 C344.4844,19.75 344.6719,19.7813 345.0938,19.7813 L345.3438,19.7813 L345.3438,26.2969 L345.0938,26.2969 C344.6875,26.2969 344.5313,26.3125 344.375,26.4219 C344.125,26.5938 343.9688,26.8594 343.9688,27.1563 C343.9688,27.4219 344.1094,27.6719 344.3281,27.8281 C344.4688,27.9531 344.7031,28 345.0938,28 L353.0938,28 L353.0938,25.4219 C353.0938,24.9844 353.0625,24.8438 352.9844,24.6875 C352.8125,24.4375 352.5313,24.2813 352.25,24.2813 C351.9844,24.2813 351.7188,24.3906 351.5469,24.6406 C351.4375,24.7969 351.4063,24.9375 351.4063,25.4219 L351.4063,26.2969 L347.0469,26.2969 L347.0469,23.875 Z " fill="#000000"/><text fill="#000000" font-family="sans-serif" font-size="14" lengthAdjust="spacing" textLength="45" x="368.75" y="27.8467">Entit&#233;</text><line style="stroke:#181818;stroke-width:0.5;" x1="241" x2="509" y1="39" y2="39"/><text fill="#000000" font-family="sans-serif" font-size="14" lengthAdjust="spacing" textLength="93" x="246" y="55.9951">Type : String</text><line style="stroke:#181818;stroke-width:1.0;" x1="241" x2="509" y1="63.2969" y2="63.2969"/><text fill="#000000" font-family="sans-serif" font-size="14" lengthAdjust="spacing" textLength="244" x="260" y="80.292">Propri&#233;t&#233;s reli&#233;es &#224; la mod&#233;ration</text><ellipse cx="251" cy="93.2422" fill="#000000" rx="3" ry="3" style="stroke:#000000;stroke-width:1.0;"/><text fill="#000000" font-family="sans-serif" font-size="14" lengthAdjust="spacing" textLength="75" x="260" y="96.5889">D&#233;tenteur</text><ellipse cx="251" cy="109.5391" fill="#000000" rx="3" ry="3" style="stroke:#000000;stroke-width:1.0;"/><text fill="#000000" font-family="sans-serif" font-size="14" lengthAdjust="spacing" textLength="72" x="260" y="112.8857">historique</text><line style="stroke:#181818;stroke-width:1.0;" x1="241" x2="509" y1="120.1875" y2="120.1875"/><text fill="#000000" font-family="sans-serif" font-size="14" lengthAdjust="spacing" textLength="172" x="260" y="137.1826">Permissions n&#233;cessaires</text><ellipse cx="251" cy="150.1328" fill="#000000" rx="3" ry="3" style="stroke:#000000;stroke-width:1.0;"/><text fill="#000000" font-family="sans-serif" font-size="14" lengthAdjust="spacing" textLength="40" x="260" y="153.4795">Cr&#233;er</text><ellipse cx="251" cy="166.4297" fill="#000000" rx="3" ry="3" style="stroke:#000000;stroke-width:1.0;"/><text fill="#000000" font-family="sans-serif" font-size="14" lengthAdjust="spacing" textLength="59" x="260" y="169.7764">Modifier</text><ellipse cx="251" cy="182.7266" fill="#000000" rx="3" ry="3" style="stroke:#000000;stroke-width:1.0;"/><text fill="#000000" font-family="sans-serif" font-size="14" lengthAdjust="spacing" textLength="167" x="260" y="186.0732">Transf&#233;rer la d&#233;tention</text></g><!--class user--><g id="elem_user"><rect codeLine="13" fill="#F1F1F1" height="145.7813" id="user" rx="2.5" ry="2.5" style="stroke:#181818;stroke-width:0.5;" width="182" x="7" y="27.5"/><ellipse cx="57.25" cy="43.5" fill="#ADD1B2" rx="11" ry="11" style="stroke:#181818;stroke-width:1.0;"/><path d="M56.0469,44.375 L57.5,44.375 L57.5,44.4844 C57.5,44.8906 57.5313,45.0469 57.6094,45.2031 C57.7656,45.4531 58.0469,45.6094 58.3438,45.6094 C58.5938,45.6094 58.8594,45.4688 59.0156,45.25 C59.1406,45.0938 59.1719,44.9375 59.1719,44.4844 L59.1719,42.5625 C59.1719,42.4063 59.1719,42.3594 59.1563,42.2031 C59.0938,41.7344 58.7813,41.4219 58.3281,41.4219 C58.0781,41.4219 57.8125,41.5625 57.6406,41.7813 C57.5313,41.9531 57.5,42.1094 57.5,42.5625 L57.5,42.6875 L56.0469,42.6875 L56.0469,40.2813 L60.0313,40.2813 L60.0313,41.1406 C60.0313,41.5469 60.0625,41.7188 60.1406,41.875 C60.3125,42.125 60.5938,42.2813 60.875,42.2813 C61.1406,42.2813 61.4063,42.1406 61.5781,41.9219 C61.6875,41.75 61.7188,41.6094 61.7188,41.1406 L61.7188,38.5938 L54.0938,38.5938 C53.6563,38.5938 53.5313,38.6094 53.375,38.7031 C53.125,38.8594 52.9688,39.1563 52.9688,39.4375 C52.9688,39.7188 53.1094,39.9688 53.3281,40.1406 C53.4844,40.25 53.6719,40.2813 54.0938,40.2813 L54.3438,40.2813 L54.3438,46.7969 L54.0938,46.7969 C53.6875,46.7969 53.5313,46.8125 53.375,46.9219 C53.125,47.0938 52.9688,47.3594 52.9688,47.6563 C52.9688,47.9219 53.1094,48.1719 53.3281,48.3281 C53.4688,48.4531 53.7031,48.5 54.0938,48.5 L62.0938,48.5 L62.0938,45.9219 C62.0938,45.4844 62.0625,45.3438 61.9844,45.1875 C61.8125,44.9375 61.5313,44.7813 61.25,44.7813 C60.9844,44.7813 60.7188,44.8906 60.5469,45.1406 C60.4375,45.2969 60.4063,45.4375 60.4063,45.9219 L60.4063,46.7969 L56.0469,46.7969 L56.0469,44.375 Z " fill="#000000"/><text fill="#000000" font-family="sans-serif" font-size="14" lengthAdjust="spacing" textLength="73" x="77.75" y="48.3467">Utilisateur</text><line style="stroke:#181818;stroke-width:0.5;" x1="8" x2="188" y1="59.5" y2="59.5"/><ellipse cx="18" cy="73.1484" fill="#000000" rx="3" ry="3" style="stroke:#000000;stroke-width:1.0;"/><text fill="#000000" font-family="sans-serif" font-size="14" lengthAdjust="spacing" textLength="38" x="27" y="76.4951">Profil</text><text fill="#000000" font-family="sans-serif" font-size="14" lengthAdjust="spacing" textLength="156" x="27" y="92.792">Permissions d&#233;tenues</text><ellipse cx="18" cy="105.7422" fill="#000000" rx="3" ry="3" style="stroke:#000000;stroke-width:1.0;"/><text fill="#000000" font-family="sans-serif" font-size="14" lengthAdjust="spacing" textLength="67" x="27" y="109.0889">D&#233;tenter</text><ellipse cx="18" cy="122.0391" fill="#000000" rx="3" ry="3" style="stroke:#000000;stroke-width:1.0;"/><text fill="#000000" font-family="sans-serif" font-size="14" lengthAdjust="spacing" textLength="40" x="27" y="125.3857">Cr&#233;er</text><ellipse cx="18" cy="138.3359" fill="#000000" rx="3" ry="3" style="stroke:#000000;stroke-width:1.0;"/><text fill="#000000" font-family="sans-serif" font-size="14" lengthAdjust="spacing" textLength="59" x="27" y="141.6826">Modifier</text><ellipse cx="18" cy="154.6328" fill="#000000" rx="3" ry="3" style="stroke:#000000;stroke-width:1.0;"/><text fill="#000000" font-family="sans-serif" font-size="14" lengthAdjust="spacing" textLength="75" x="27" y="157.9795">Transf&#233;rer</text><line style="stroke:#181818;stroke-width:0.5;" x1="8" x2="188" y1="165.2813" y2="165.2813"/></g><!--reverse link user to e--><g id="link_user_e"><path codeLine="21" d="M190,104 C212.531,104 216.469,91 239,91 " fill="none" id="user-backto-e" style="stroke:#181818;stroke-width:1.0;"/></g><!--SRC=[XOynRiCm34LdwnGV7WFe0bxRZW4AD3s0KDCD0KTAIMa8Wjwbgy-XYvMoaGITEeaY_d__asBcV47_qjwwz0WAmjLrXykPCE0j2yTFrtdlNVSgwInS5nCgX6ORIL5_C0USqbWN2PbJTDtksKGKCnMnpv4r9-6lGZSEoObLJQg8TVaWrS12QjedCMOpxTF84w_ZGKBKoUWaBMdSsEO6uBuTRIUWVyyyiuQMkjvHr0nsoivwJpp_pTqePGszjPN_2rXUmmx3tOFanOCUcoA_]--></g></svg>